<?xml version="1.0" encoding="utf-8"?>
<!-- Generator: Adobe Illustrator 25.4.0, SVG Export Plug-In . SVG Version: 6.00 Build 0)  -->
<svg version="1.1" id="Capa_1" xmlns="http://www.w3.org/2000/svg" xmlns:xlink="http://www.w3.org/1999/xlink" x="0px" y="0px"
	 viewBox="0 0 32.47 30" style="enable-background:new 0 0 32.47 30;" xml:space="preserve">
<style type="text/css">
	.st0{fill:#14243A;}
	.st1{fill:#65E8F1;}
</style>
<g>
	<g>
		<path class="st0" d="M19.18,4.1c0.31,0.01,0.53,0.15,0.7,0.39c0.7,0.94,1.39,1.87,2.09,2.8c0.61,0.82,1.23,1.64,1.83,2.47
			c0.39,0.54,1.03,0.41,1.33-0.03c1.2-1.74,2.43-3.46,3.66-5.18c0.27-0.39,0.64-0.52,1.07-0.39c0.53,0.16,0.89,0.56,0.87,1.02
			c0,0.15-0.07,0.33-0.16,0.45c-1.47,1.99-2.95,3.97-4.43,5.95c-0.25,0.34-0.26,0.66-0.01,1c1.24,1.67,2.49,3.33,3.73,5
			c0.43,0.57,0.83,1.17,1.29,1.71c0.39,0.47,0.22,1.04-0.21,1.36c-0.45,0.33-1.15,0.38-1.59-0.24c-1.26-1.79-2.54-3.56-3.81-5.33
			c-0.15-0.21-0.31-0.43-0.46-0.64c-0.33-0.46-0.91-0.47-1.24-0.01c-0.59,0.81-1.16,1.62-1.75,2.42c-0.89,1.23-1.77,2.46-2.66,3.69
			c-0.29,0.4-0.84,0.47-1.33,0.18c-0.23-0.14-0.42-0.32-0.51-0.58c-0.12-0.31-0.03-0.58,0.16-0.83c1.04-1.4,2.08-2.79,3.12-4.18
			c0.64-0.85,1.28-1.71,1.91-2.57c0.22-0.3,0.21-0.63-0.02-0.94c-0.55-0.72-1.1-1.44-1.65-2.16c-0.95-1.24-1.9-2.49-2.85-3.72
			c-0.5-0.65-0.06-1.29,0.49-1.52C18.88,4.16,19.03,4.14,19.18,4.1z"/>
		<path class="st0" d="M15.64,13.54c-0.12,0.59-0.22,1.16-0.37,1.72c-0.26,0.98-0.7,1.89-1.34,2.69c-0.89,1.12-2.04,1.85-3.41,2.22
			c-0.8,0.22-1.61,0.29-2.43,0.29c-1.18,0-2.35,0.01-3.53,0c-0.29,0-0.58-0.02-0.85-0.08c-0.85-0.18-1.26-0.77-1.32-1.62
			c-0.05-0.75-0.03-1.5-0.04-2.25c0-0.26,0.01-0.53-0.01-0.79c0-0.07-0.07-0.16-0.13-0.19c-1.02-0.41-1.72-1.13-2.06-2.19
			C-0.41,11.6,0.51,9.71,2.19,9.1c0.13-0.05,0.15-0.12,0.15-0.24c0-0.89-0.01-1.78,0.01-2.67C2.36,5.86,2.39,5.52,2.47,5.2
			c0.2-0.81,0.83-1.21,1.6-1.22c1.65-0.02,3.29-0.06,4.94,0.01c1.91,0.08,3.59,0.77,4.88,2.26c0.61,0.71,1.05,1.51,1.31,2.41
			c0.18,0.62,0.28,1.27,0.42,1.9c0.02,0.11-0.02,0.15-0.13,0.15c-0.6,0-1.21,0-1.81,0c-0.16,0-0.16-0.1-0.17-0.21
			c-0.11-0.83-0.33-1.63-0.75-2.36c-0.66-1.18-1.66-1.92-2.98-2.2C9.26,5.83,8.73,5.78,8.21,5.76C7.18,5.74,6.15,5.76,5.11,5.76
			c-0.52,0-0.76,0.25-0.77,0.76c0,0.76,0.01,1.53,0,2.29c0,0.16,0.06,0.23,0.2,0.28c1.27,0.49,2.01,1.42,2.22,2.76
			c0.24,1.56-0.72,3.14-2.2,3.66c-0.16,0.06-0.21,0.13-0.21,0.3c0.01,0.69,0,1.37,0,2.06c0,0.27,0.04,0.52,0.31,0.66
			c0.1,0.05,0.21,0.08,0.32,0.08c1.18,0,2.37,0.05,3.55-0.01c2.13-0.1,3.65-1.15,4.48-3.14c0.23-0.55,0.39-1.13,0.47-1.72
			c0.02-0.16,0.08-0.22,0.24-0.21c0.57,0.01,1.14,0,1.7,0C15.48,13.53,15.54,13.53,15.64,13.54z M3.38,15.42
			c1.72,0,3.11-1.39,3.11-3.11c0-1.73-1.39-3.13-3.09-3.13c-1.73,0-3.11,1.39-3.11,3.14C0.29,14.02,1.68,15.42,3.38,15.42z"/>
		<path class="st0" d="M17.91,26.05c-0.28,0.28-0.58,0.37-0.93,0.35c-0.61-0.02-1.09-0.42-1.24-1.07c-0.13-0.55-0.1-1.1,0.21-1.6
			c0.49-0.8,1.77-0.81,2.21-0.02c0.11,0.19,0.04,0.35-0.14,0.34c-0.06-0.01-0.15-0.06-0.18-0.11c-0.19-0.37-0.49-0.5-0.89-0.46
			c-0.37,0.04-0.63,0.26-0.76,0.6c-0.2,0.52-0.2,1.03,0.07,1.53c0.28,0.51,1.03,0.62,1.44,0.22c0.17-0.16,0.23-0.36,0.23-0.59
			c0-0.11-0.06-0.16-0.16-0.16c-0.15,0-0.29,0-0.44,0c-0.11,0-0.19-0.04-0.19-0.16c0-0.13,0.08-0.18,0.19-0.18
			c0.22,0,0.43-0.01,0.65,0c0.17,0.01,0.27,0.1,0.28,0.28c0.01,0.4,0.01,0.8,0,1.2c0,0.11-0.04,0.18-0.17,0.18
			c-0.11,0-0.17-0.06-0.17-0.18C17.93,26.18,17.92,26.14,17.91,26.05z"/>
		<path class="st0" d="M9.21,24.77c0-0.38,0-0.76,0-1.14c0-0.3,0.12-0.42,0.41-0.42c0.49-0.01,0.97,0,1.46,0
			c0.12,0,0.22,0.03,0.22,0.17c0,0.14-0.09,0.17-0.21,0.17c-0.42,0-0.84,0-1.26,0c-0.2,0-0.23,0.03-0.24,0.23
			c0,0.19,0.01,0.39,0,0.58c-0.01,0.15,0.05,0.19,0.2,0.19c0.37-0.01,0.74,0,1.11,0c0.12,0,0.24,0.01,0.23,0.17
			c-0.01,0.15-0.12,0.16-0.24,0.16c-0.36,0-0.73,0-1.09,0c-0.15,0-0.21,0.04-0.2,0.2c0.01,0.23,0,0.46,0,0.69
			c0,0.24,0.02,0.26,0.26,0.26c0.4,0,0.81,0,1.21,0c0.05,0,0.12-0.01,0.15,0.01c0.05,0.04,0.13,0.11,0.12,0.16
			c-0.01,0.06-0.09,0.15-0.14,0.15c-0.56,0.01-1.12,0.01-1.69,0c-0.18,0-0.29-0.16-0.29-0.38C9.2,25.57,9.21,25.17,9.21,24.77z"/>
		<path class="st0" d="M24.47,23.58c-0.12,0.3-0.23,0.59-0.33,0.87c-0.22,0.59-0.44,1.17-0.66,1.76c-0.05,0.14-0.13,0.21-0.28,0.15
			c-0.14-0.06-0.12-0.17-0.08-0.28c0.35-0.89,0.71-1.79,1.06-2.68c0.05-0.13,0.14-0.21,0.29-0.21c0.16,0,0.25,0.1,0.3,0.23
			c0.21,0.53,0.42,1.06,0.63,1.58c0.14,0.35,0.28,0.7,0.41,1.05c0.05,0.12,0.12,0.25-0.06,0.32c-0.14,0.06-0.23,0-0.3-0.2
			c-0.31-0.82-0.61-1.65-0.92-2.47C24.52,23.66,24.5,23.63,24.47,23.58z"/>
		<path class="st0" d="M2.46,24.68c0-0.42,0-0.83,0-1.25c0-0.08,0.04-0.18,0.1-0.22c0.14-0.1,0.27,0.01,0.27,0.2
			c0,0.66,0,1.32,0,1.99c0,0.12,0,0.25,0,0.37c0,0.2,0.04,0.24,0.24,0.24c0.4,0,0.81,0,1.21,0c0.05,0,0.12-0.02,0.15,0.01
			c0.06,0.04,0.13,0.11,0.13,0.17c0,0.06-0.09,0.16-0.14,0.16c-0.56,0.01-1.12,0.02-1.68-0.01c-0.09,0-0.21-0.13-0.25-0.23
			c-0.05-0.15-0.04-0.32-0.04-0.49C2.45,25.31,2.46,24.99,2.46,24.68z"/>
		<path class="st0" d="M30,24.68c0-0.42,0-0.84,0-1.27c0-0.14,0.04-0.23,0.2-0.23c0.15,0,0.18,0.1,0.18,0.23c0,0.54,0,1.08,0,1.62
			c0,0.25,0,0.49,0,0.74c0,0.2,0.04,0.24,0.25,0.24c0.43,0,0.85,0,1.28,0c0.11,0,0.2,0.02,0.21,0.16c0,0.11-0.05,0.18-0.16,0.18
			c-0.55,0-1.1,0-1.65,0c-0.19,0-0.29-0.14-0.3-0.37C30,25.54,30,25.11,30,24.68C30,24.68,30,24.68,30,24.68z"/>
	</g>
	<path class="st1" d="M2.09,12.25C2.09,11.57,2.63,11.01,3.32,11c0.69-0.01,1.26,0.55,1.26,1.24c0,0.7-0.55,1.26-1.24,1.26
		C2.65,13.5,2.1,12.95,2.09,12.25z"/>
	<path class="st1" d="M3.4,15.72c-1.91,0-3.46-1.55-3.46-3.46S1.49,8.79,3.4,8.79s3.46,1.55,3.46,3.46S5.31,15.72,3.4,15.72z
		 M3.4,9.27c-1.65,0-2.99,1.34-2.99,2.99s1.34,2.99,2.99,2.99s2.99-1.34,2.99-2.99S5.04,9.27,3.4,9.27z"/>
</g>
</svg>
